<svg width="16" height="17" viewBox="0 0 16 17" fill="none" xmlns="http://www.w3.org/2000/svg">
<circle cx="8" cy="8" r="8" fill="#D2B9F1"/>
<path d="M8.684 12.088V10.048C8.532 10.016 8.312 9.968 8.024 9.904C7.736 9.832 7.516 9.78 7.364 9.748C6.908 9.652 6.548 9.604 6.284 9.604C5.78 9.604 5.528 9.744 5.528 10.024C5.528 10.336 5.632 10.6 5.84 10.816C6.056 11.032 6.248 11.14 6.416 11.14C6.584 11.14 6.732 11.096 6.86 11.008C6.996 10.92 7.116 10.876 7.22 10.876C7.356 10.876 7.424 10.948 7.424 11.092C7.424 11.228 7.36 11.34 7.232 11.428C7.112 11.516 6.92 11.56 6.656 11.56C6.232 11.56 5.872 11.376 5.576 11.008C5.28 10.64 5.132 10.264 5.132 9.88C5.132 9.496 5.22 9.208 5.396 9.016C5.572 8.824 5.792 8.728 6.056 8.728C6.664 8.728 7.568 8.92 8.768 9.304C8.864 8.8 9.044 8.548 9.308 8.548C9.428 8.548 9.488 8.876 9.488 9.532C10.264 9.772 10.932 9.892 11.492 9.892C11.852 9.892 12.168 9.776 12.44 9.544C12.52 9.48 12.588 9.448 12.644 9.448C12.708 9.448 12.74 9.476 12.74 9.532C12.74 9.748 12.58 9.944 12.26 10.12C11.94 10.288 11.556 10.372 11.108 10.372C10.66 10.372 10.12 10.316 9.488 10.204C9.504 11.308 9.512 12.068 9.512 12.484C9.512 12.9 9.496 13.256 9.464 13.552C9.44 13.848 9.38 14.16 9.284 14.488C9.188 14.808 9.06 15.08 8.9 15.304C8.748 15.52 8.532 15.7 8.252 15.844C7.98 15.988 7.66 16.06 7.292 16.06C6.932 16.06 6.604 15.976 6.308 15.808C6.02 15.64 5.876 15.38 5.876 15.028C5.876 14.812 5.932 14.636 6.044 14.5C6.156 14.356 6.304 14.284 6.488 14.284C6.68 14.284 6.776 14.328 6.776 14.416C6.776 14.456 6.752 14.536 6.704 14.656C6.656 14.768 6.632 14.884 6.632 15.004C6.632 15.116 6.704 15.24 6.848 15.376C7 15.512 7.216 15.58 7.496 15.58C8.288 15.58 8.684 14.416 8.684 12.088Z" fill="black"/>
</svg>
